HIERARCHY
ROOT Hips
{
    OFFSET 0.000000 0.000000 0.000000
    CHANNELS 6 Xposition Yposition Zposition Zrotation Xrotation Yrotation
    JOINT Spine
    {
        OFFSET -0.000000 14.517291 0.000000
        CHANNELS 3 Zrotation Xrotation Yrotation
        JOINT Spine1
        {
            OFFSET -0.000000 37.558300 0.000000
            CHANNELS 3 Zrotation Xrotation Yrotation
            JOINT Neck
            {
                OFFSET -0.000000 37.404057 3.400369
                CHANNELS 3 Zrotation Xrotation Yrotation
                JOINT Head
                {
                    OFFSET -0.000000 24.785618 -3.540803
                    CHANNELS 3 Zrotation Xrotation Yrotation
                    End Site
                    {
                        OFFSET -0.000000 35.408028 0.000000
                    }
                }
            }
            JOINT LeftShoulder
            {
                OFFSET 6.992933 33.973492 -0.192664
                CHANNELS 3 Zrotation Xrotation Yrotation
                JOINT LeftArm
                {
                    OFFSET 21.527611 0.000000 0.000000
                    CHANNELS 3 Zrotation Xrotation Yrotation
                    JOINT LeftForeArm
                    {
                        OFFSET 56.353916 0.000000 0.000000
                        CHANNELS 3 Zrotation Xrotation Yrotation
                        JOINT LeftHand
                        {
                            OFFSET 47.774071 0.000000 0.000000
                            CHANNELS 3 Zrotation Xrotation Yrotation
                            End Site
                            {
                                OFFSET 26.556021 0.000000 0.000000
                            }
                        }
                    }
                }
            }
            JOINT RightShoulder
            {
                OFFSET -7.065357 33.973492 -0.192664
                CHANNELS 3 Zrotation Xrotation Yrotation
                JOINT RightArm
                {
                    OFFSET -21.527611 0.000000 0.000000
                    CHANNELS 3 Zrotation Xrotation Yrotation
                    JOINT RightForeArm
                    {
                        OFFSET -56.353916 0.000000 0.000000
                        CHANNELS 3 Zrotation Xrotation Yrotation
                        JOINT RightHand
                        {
                            OFFSET -47.774071 0.000000 0.000000
                            CHANNELS 3 Zrotation Xrotation Yrotation
                            End Site
                            {
                                OFFSET -26.556021 0.000000 0.000000
                            }
                        }
                    }
                }
            }
        }
    }
    JOINT LeftUpLeg
    {
        OFFSET 17.704014 0.000000 0.000000
        CHANNELS 3 Zrotation Xrotation Yrotation
        JOINT LeftLeg
        {
            OFFSET -0.000000 -81.181816 0.000000
            CHANNELS 3 Zrotation Xrotation Yrotation
            JOINT LeftFoot
            {
                OFFSET -0.000000 -62.821102 0.000000
                CHANNELS 3 Zrotation Xrotation Yrotation
                JOINT LeftToeBase
                {
                    OFFSET -0.000000 -11.507608 26.556021
                    CHANNELS 3 Zrotation Xrotation Yrotation
                    End Site
                    {
                        OFFSET -0.000000 0.000000 7.081605
                    }
                }
            }
        }
    }
    JOINT RightUpLeg
    {
        OFFSET -17.704014 0.000000 0.000000
        CHANNELS 3 Zrotation Xrotation Yrotation
        JOINT RightLeg
        {
            OFFSET -0.000000 -81.181816 0.000000
            CHANNELS 3 Zrotation Xrotation Yrotation
            JOINT RightFoot
            {
                OFFSET -0.000000 -62.821102 0.000000
                CHANNELS 3 Zrotation Xrotation Yrotation
                JOINT RightToeBase
                {
                    OFFSET -0.000000 -11.507608 26.556021
                    CHANNELS 3 Zrotation Xrotation Yrotation
                    End Site
                    {
                        OFFSET -0.000000 0.000000 7.081605
                    }
                }
            }
        }
    }
}
MOTION
Frames:    8
Frame Time:    0.008333
20.586475    153.082855    -81.826569    18.052820    -1.778613    -23.217325    12.634780    4.390882    -0.792129    2.136219    2.001253    -0.134083    20.437473    4.041783    17.585711    -27.567280    3.281714    12.900775    1.285685    10.737582    -14.948065    -38.130833    15.466512    -37.473621    35.325382    -45.908672    -46.631916    -18.449549    -29.374716    -31.286554    -4.487160    3.033412    -1.616128    33.857738    9.917205    74.468452    5.685541    -9.154032    87.966515    9.402515    -12.919559    19.965103    -3.101124    -22.622770    -6.422889    -8.313782    2.704623    -10.338847    -13.389083    9.985674    40.937775    0.000000    0.000000    0.000000    -31.952862    -13.180088    -9.467127    7.584178    46.765957    -5.793256    8.610423    -33.458008    -9.148744    0.000000    0.000000    0.000000    
20.582315    153.080566    -81.834366    18.054335    -1.780761    -23.209846    12.628157    4.386256    -0.790223    2.139821    2.014221    -0.133915    20.431194    4.031469    17.582560    -27.548052    3.276232    12.897131    1.288374    10.735441    -14.957537    -38.123238    15.450916    -37.476963    35.310894    -45.922176    -46.633183    -18.422657    -29.403652    -31.288694    -4.490278    3.030819    -1.616300    33.854980    9.925757    74.478767    5.687971    -9.163087    87.958031    9.415409    -12.927821    19.965170    -3.102640    -22.623346    -6.426838    -8.318550    2.699540    -10.304702    -13.381046    10.007710    40.905403    0.000000    0.000000    0.000000    -31.949459    -13.186838    -9.437955    7.602877    46.781712    -5.810688    8.605698    -33.457962    -9.179611    0.000000    0.000000    0.000000    
20.580791    153.078506    -81.840660    18.054766    -1.782100    -23.202570    12.627926    4.395575    -0.787487    2.132956    2.004503    -0.132797    20.423475    4.010667    17.578026    -27.505833    3.291190    12.897881    1.294613    10.739541    -14.958269    -38.118069    15.453557    -37.485413    35.326469    -45.938820    -46.620564    -18.407633    -29.428471    -31.272242    -4.487803    3.032826    -1.611994    33.851494    9.939134    74.476974    5.686035    -9.181368    87.964706    9.457467    -12.937689    19.963427    -3.102843    -22.626005    -6.418128    -8.323997    2.704006    -10.324333    -13.385336    10.008570    40.917572    0.000000    0.000000    0.000000    -31.943632    -13.195201    -9.407755    7.620050    46.800030    -5.836866    8.590679    -33.461758    -9.205677    0.000000    0.000000    0.000000    
20.581112    153.073700    -81.847649    18.056271    -1.780484    -23.190826    12.616726    4.388709    -0.787673    2.146439    2.015456    -0.133899    20.390909    3.986572    17.564903    -27.437931    3.294978    12.892073    1.293286    10.734461    -14.957332    -38.110321    15.466314    -37.493801    35.358177    -45.951771    -46.597122    -18.393808    -29.446808    -31.245075    -4.495968    3.034248    -1.612627    33.860168    9.928053    74.486427    5.711683    -9.152802    87.961609    9.405766    -12.942624    19.958632    -3.109350    -22.633949    -6.402702    -8.320900    2.712226    -10.335035    -13.377327    10.015025    40.903996    0.000000    0.000000    0.000000    -31.944347    -13.197867    -9.402434    7.633123    46.811531    -5.834290    8.586541    -33.474453    -9.226508    0.000000    0.000000    0.000000    
20.581644    153.071289    -81.860718    18.059547    -1.773307    -23.184393    12.616564    4.391055    -0.784854    2.137977    2.003752    -0.132478    20.377178    3.976461    17.548574    -27.385206    3.301981    12.882272    1.296780    10.731426    -14.960359    -38.103935    15.477445    -37.490799    35.372150    -45.962818    -46.585518    -18.382196    -29.464350    -31.227032    -4.490856    3.031813    -1.606093    33.849289    9.955236    74.485092    5.709001    -9.185157    87.964958    9.444487    -12.965518    19.958872    -3.108944    -22.650434    -6.407537    -8.326063    2.717340    -10.327070    -13.363401    10.034889    40.890190    0.000000    0.000000    0.000000    -31.938353    -13.213070    -9.395682    7.630302    46.824074    -5.857118    8.585209    -33.474438    -9.226142    0.000000    0.000000    0.000000    
20.577183    153.067383    -81.868294    18.057236    -1.773883    -23.168495    12.611816    4.382155    -0.786500    2.135678    2.021526    -0.133511    20.349632    3.953927    17.529531    -27.305904    3.302045    12.870349    1.310372    10.716723    -14.965723    -38.108452    15.480371    -37.482506    35.351254    -45.966557    -46.613441    -18.383057    -29.468140    -31.227734    -4.485083    3.033131    -1.615544    33.847355    9.958529    74.500595    5.725960    -9.187554    87.962463    9.469143    -12.979483    19.958162    -3.110201    -22.651566    -6.412046    -8.326800    2.717050    -10.323442    -13.370094    10.042082    40.881641    0.000000    0.000000    0.000000    -31.933193    -13.208585    -9.395242    7.631674    46.834614    -5.870705    8.585018    -33.481770    -9.218438    0.000000    0.000000    0.000000    
20.575277    153.062576    -81.881058    18.056944    -1.768294    -23.156363    12.608980    4.378766    -0.791690    2.136289    2.022585    -0.135012    20.333918    3.943738    17.511009    -27.258247    3.312876    12.858801    1.303760    10.708193    -14.958400    -38.104374    15.482866    -37.470066    35.327595    -45.961357    -46.644279    -18.367805    -29.464472    -31.231884    -4.489689    3.026335    -1.601028    33.859280    9.967801    74.496460    5.727728    -9.173646    87.961868    9.449016    -12.971578    19.947666    -3.106867    -22.661407    -6.420841    -8.329418    2.712906    -10.335380    -13.383540    10.043107    40.900517    0.000000    0.000000    0.000000    -31.926809    -13.215965    -9.396667    7.632830    46.846073    -5.876707    8.594065    -33.486019    -9.234208    0.000000    0.000000    0.000000    
20.572990    153.057495    -81.893486    18.055962    -1.766433    -23.143303    12.593050    4.381768    -0.786183    2.138898    2.025566    -0.133882    20.193127    4.010418    17.432030    -27.021820    3.121430    12.786046    1.328318    10.704683    -14.953644    -38.123528    15.481725    -37.484394    35.298462    -45.951084    -46.687546    -18.361038    -29.449617    -31.241669    -4.471335    3.019314    -1.619007    33.838745    9.980154    74.501091    5.453295    -9.036195    87.845177    9.166375    -12.602737    20.097042    -3.107767    -22.668413    -6.428192    -8.329635    2.714532    -10.319798    -13.370301    10.067263    40.869259    0.000000    0.000000    0.000000    -31.921976    -13.214581    -9.404456    7.620415    46.852505    -5.880425    8.590388    -33.494457    -9.215608    0.000000    0.000000    0.000000    
